<?xml version="1.0" encoding="UTF-8" standalone="no"?><!DOCTYPE svg PUBLIC "-//W3C//DTD SVG 1.1//EN" "http://www.w3.org/Graphics/SVG/1.1/DTD/svg11.dtd"><svg width="100%" height="100%" viewBox="0 0 140 140" version="1.1" xmlns="http://www.w3.org/2000/svg" xmlns:xlink="http://www.w3.org/1999/xlink" xml:space="preserve" xmlns:serif="http://www.serif.com/" style="fill-rule:evenodd;clip-rule:evenodd;stroke-linejoin:round;stroke-miterlimit:2;"><g><path d="M26.679,25.752l45.441,0l0,20.137l41.333,0l0,56.833l3.047,0l0,11.526l-93,0l0,-11.526l3.179,0l-0,-76.97Zm39.214,80.017l8.214,0l0,5.299l-8.214,0l0,-5.299Zm41.069,-3.047l0,-10.731l-11.129,0l0,10.731l11.129,0Zm-21.727,0l0,-10.731l-11.128,0l0,10.731l11.128,0Zm10.598,-30.602l11.129,0l0,10.995l-11.129,0l0,-10.995Zm-21.726,0l11.128,0l0,10.995l-11.128,0l0,-10.995Zm21.726,-20.005l11.129,0l0,10.996l-11.129,0l0,-10.996Zm-21.726,0l11.128,0l0,10.996l-11.128,0l0,-10.996Zm-19.475,39.611l10.996,0l0,10.996l-10.996,0l0,-10.996Zm0,-19.871l10.996,0l0,10.995l-10.996,0l0,-10.995Zm0,-20.005l10.996,0l0,10.996l-10.996,0l0,-10.996Zm-21.726,39.876l10.996,0l0,10.996l-10.996,0l0,-10.996Zm0,-19.871l10.996,0l0,10.995l-10.996,0l0,-10.995Zm0,-20.005l10.996,0l0,10.996l-10.996,0l0,-10.996Zm21.726,-19.871l10.996,0l0,10.995l-10.996,0l0,-10.995Zm-21.726,0l10.996,0l0,10.995l-10.996,0l0,-10.995Z" style="fill:#c5c5c5;"/></g></svg>