<?xml version="1.0" encoding="UTF-8" standalone="no"?><!DOCTYPE svg PUBLIC "-//W3C//DTD SVG 1.1//EN" "http://www.w3.org/Graphics/SVG/1.1/DTD/svg11.dtd"><svg width="100%" height="100%" viewBox="0 0 140 140" version="1.1" xmlns="http://www.w3.org/2000/svg" xmlns:xlink="http://www.w3.org/1999/xlink" xml:space="preserve" xmlns:serif="http://www.serif.com/" style="fill-rule:evenodd;clip-rule:evenodd;stroke-linejoin:round;stroke-miterlimit:2;"><g><path d="M101.572,21.592c-9.273,0 -16.823,7.563 -16.823,16.836c0,9.273 7.55,16.833 16.823,16.833c9.273,0 16.832,-7.56 16.832,-16.833c0,-9.273 -7.559,-16.836 -16.832,-16.836Zm-63.161,0.638c-9.273,0 -16.819,7.563 -16.819,16.836c0,9.273 7.546,16.82 16.819,16.82c9.273,0 16.833,-7.547 16.833,-16.82c0,-9.273 -7.56,-16.836 -16.833,-16.836Zm61.439,4.748l3.461,0l0,2.286c1.062,0.228 2.038,0.642 2.853,1.263c1.245,0.948 2.158,2.414 2.158,4.082l-3.458,0c0,-0.441 -0.22,-0.893 -0.79,-1.327c-0.57,-0.434 -1.474,-0.763 -2.502,-0.763c-1.029,0 -1.919,0.329 -2.489,0.763c-0.57,0.434 -0.793,0.886 -0.793,1.327c0,0.396 0.095,0.555 0.742,0.973c0.647,0.417 1.77,0.831 3.016,1.185c1.348,0.383 2.743,0.807 3.964,1.584c1.221,0.776 2.355,2.204 2.31,3.943c-0.071,2.72 -2.277,4.691 -5.011,5.292l0,2.326l-3.461,0l0,-2.32c-1.063,-0.227 -2.042,-0.643 -2.86,-1.266c-1.245,-0.948 -2.155,-2.414 -2.155,-4.082l3.455,0c0,0.441 0.223,0.893 0.793,1.327c0.571,0.434 1.46,0.763 2.489,0.763c2.057,0 3.268,-1.194 3.292,-2.131c0.013,-0.4 -0.067,-0.519 -0.716,-0.932c-0.649,-0.412 -1.794,-0.828 -3.049,-1.185c-1.358,-0.386 -2.735,-0.828 -3.944,-1.607c-1.209,-0.78 -2.32,-2.157 -2.32,-3.87c0,-1.668 0.91,-3.134 2.155,-4.082c0.818,-0.623 1.797,-1.039 2.86,-1.267l0,-2.282Zm-63.161,0.638l3.457,0l-0,2.286c1.062,0.228 2.046,0.642 2.861,1.263c1.244,0.948 2.157,2.414 2.157,4.082l-3.457,0c-0,-0.441 -0.221,-0.892 -0.791,-1.327c-0.57,-0.434 -1.476,-0.763 -2.505,-0.763c-1.029,0 -1.915,0.329 -2.485,0.763c-0.57,0.435 -0.794,0.886 -0.794,1.327c-0,0.396 0.096,0.555 0.743,0.973c0.647,0.417 1.763,0.817 3.009,1.172c1.348,0.383 2.749,0.82 3.971,1.597c1.221,0.776 2.354,2.19 2.309,3.93l-0,0.014c-0.071,2.719 -2.283,4.69 -5.018,5.291l-0,2.326l-3.457,0l-0,-2.319c-1.068,-0.231 -2.052,-0.657 -2.87,-1.28c-1.245,-0.948 -2.148,-2.401 -2.148,-4.069l3.461,0c-0,0.441 0.224,0.893 0.794,1.327c0.57,0.434 1.456,0.763 2.485,0.763c2.057,0 3.271,-1.203 3.296,-2.141c0.013,-0.4 -0.071,-0.509 -0.72,-0.921c-0.649,-0.413 -1.79,-0.829 -3.045,-1.186c-1.358,-0.386 -2.736,-0.827 -3.944,-1.607c-1.209,-0.78 -2.327,-2.157 -2.327,-3.87c-0,-1.668 0.903,-3.134 2.148,-4.082c0.818,-0.623 1.802,-1.039 2.87,-1.266l-0,-2.283Zm33.311,13.797c-7.588,0 -13.831,6.244 -13.831,13.831c0,7.587 6.243,13.831 13.831,13.831c7.587,0 13.831,-6.244 13.831,-13.831c0,-7.587 -6.244,-13.831 -13.831,-13.831Zm6.935,8.097l0.024,0c0.936,0.018 1.697,0.793 1.697,1.729c0,0.436 -0.165,0.856 -0.461,1.175l-8.793,9.816c-0.328,0.362 -0.793,0.568 -1.281,0.568c-0.517,0 -1.008,-0.232 -1.336,-0.632l-5.028,-6.128c-0.277,-0.316 -0.43,-0.723 -0.43,-1.143c0,-0.951 0.782,-1.733 1.732,-1.733c0.539,0 1.048,0.252 1.376,0.681l3.741,4.568l7.439,-8.306c0.293,-0.337 0.704,-0.547 1.148,-0.588c0.057,-0.005 0.115,-0.007 0.172,-0.007Zm25.927,14.486c-0.515,-0.013 -1.055,0.109 -1.55,0.382l-7.149,3.947c-1.32,0.729 -1.825,2.236 -1.131,3.384l13.146,21.759c0.693,1.148 2.316,1.488 3.636,0.76l7.152,-3.944c1.32,-0.729 1.825,-2.242 1.131,-3.39l-13.149,-21.76c-0.433,-0.717 -1.228,-1.116 -2.086,-1.138Zm-64.259,2.04c-0.88,0.059 -1.715,0.522 -2.191,1.31l-14.449,23.914c-0.762,1.261 -0.314,2.864 1.006,3.593l7.152,3.94c1.321,0.729 2.996,0.303 3.758,-0.959l14.449,-23.914c0.763,-1.261 0.314,-2.864 -1.006,-3.592l-7.152,-3.944c-0.495,-0.273 -1.038,-0.383 -1.567,-0.348Zm37.711,8.941c-2.08,-0.062 -4.174,0.007 -6.118,0.22c-3.89,0.426 -7.169,1.493 -8.51,2.86c-1.168,1.191 -2.962,3.784 -4.261,6.311c-0.649,1.263 -1.182,2.518 -1.486,3.576c-0.303,1.057 -0.32,1.913 -0.196,2.242c0.247,0.651 0.501,0.758 1.229,0.739c0.729,-0.018 1.859,-0.385 3.083,-1.07c2.449,-1.369 5.309,-3.913 7.172,-6.453c0.267,-0.366 0.78,-0.476 1.182,-0.253c9.134,5.47 19.219,9.953 28.115,15.617l5.595,-5.332l-10.89,-18.021c-2.049,0.498 -5.001,0.802 -8.884,0.142c-1.887,-0.321 -3.951,-0.515 -6.031,-0.578Zm-26.064,2.455l-12.427,20.551c15.955,15.787 27.368,19.062 32.305,20.199c2.182,0.677 4.645,-0.196 5.855,-2.235c0.297,-0.501 0.472,-1.034 0.578,-1.577c2.266,0.901 4.948,0.073 6.226,-2.08c0.357,-0.602 0.565,-1.257 0.645,-1.915c1.944,0.248 3.954,-0.642 5.008,-2.418c0.296,-0.498 0.472,-1.031 0.577,-1.573c2.264,0.89 4.938,0.052 6.213,-2.097c0.346,-0.583 0.555,-1.212 0.642,-1.847l-1.202,-0.763c-8.093,-5.153 -17.503,-9.482 -26.406,-14.655c-1.986,2.25 -4.126,4.509 -6.52,5.848c-1.557,0.871 -2.883,1.458 -4.684,1.503c-0.543,0.014 -1.443,0.094 -2.59,-0.56c-1.147,-0.655 -1.724,-1.763 -1.965,-2.398c-0.435,-1.148 -0.316,-1.643 -0.27,-2.31c0.046,-0.666 0.169,-1.369 0.385,-2.12c0.399,-1.391 1.012,-2.793 1.736,-4.201c0.846,-1.646 1.788,-3.193 2.758,-4.558l-6.864,-0.794Zm60.979,8.685c0.989,0 1.792,0.771 1.793,1.726c0.001,0.955 -0.802,1.732 -1.793,1.732c-0.991,0 -1.794,-0.777 -1.793,-1.732c0.001,-0.955 0.804,-1.726 1.793,-1.726Zm-82.188,3.944c0.99,0 1.793,0.773 1.793,1.729c-0.002,0.954 -0.804,1.729 -1.793,1.729c-0.99,0 -1.792,-0.775 -1.793,-1.729c-0.001,-0.956 0.802,-1.729 1.793,-1.729Z" style="fill:#c5c5c5;fill-rule:nonzero;"/></g></svg>