<?xml version="1.0" encoding="UTF-8" standalone="no"?><!DOCTYPE svg PUBLIC "-//W3C//DTD SVG 1.1//EN" "http://www.w3.org/Graphics/SVG/1.1/DTD/svg11.dtd"><svg width="100%" height="100%" viewBox="0 0 140 140" version="1.1" xmlns="http://www.w3.org/2000/svg" xmlns:xlink="http://www.w3.org/1999/xlink" xml:space="preserve" xmlns:serif="http://www.serif.com/" style="fill-rule:evenodd;clip-rule:evenodd;stroke-linejoin:round;stroke-miterlimit:2;"><g><path d="M88.109,60.94c3.259,-3.082 3.021,-9.815 0.379,-12.102c2.102,-5.587 4.796,-12.09 3.659,-17.786c-1.396,-6.983 -11.312,-9.46 -19.38,-9.46c-6.256,0 -13.856,1.577 -16.253,5.894c-2.408,0.266 -4.268,1.262 -5.538,2.973c-3.502,4.728 -1.11,11.985 0.613,18.302c-2.642,2.291 -2.957,9.097 0.302,12.179c0.448,6.406 4.236,10.331 6.007,11.835l-0,9.714c-1.698,0.634 -3.36,1.247 -4.978,1.84c-14.002,5.147 -24.119,8.871 -27.08,14.796c-4.2,8.395 -4.248,16.907 -4.248,17.266c-0,1.113 0.904,2.017 2.017,2.017l92.782,-0c1.113,-0 2.017,-0.904 2.017,-2.017c-0,-0.359 -0.048,-8.871 -4.248,-17.266c-2.965,-5.93 -13.082,-9.649 -27.084,-14.796c-1.614,-0.597 -3.28,-1.206 -4.974,-1.84l-0,-9.714c1.771,-1.508 5.559,-5.429 6.007,-11.835" style="fill:#c5c5c5;fill-rule:nonzero;"/></g></svg>